<svg height="32" viewBox="0 0 32 32" width="32" xmlns="http://www.w3.org/2000/svg"><path fill="none" d="M0 0h32v32H0z"/><g fill="#fff"><path d="M31.999 22.988L32 8h-2V6H10V4H0v28h31.999v-8.988L32 23l-.001-.012zM2 29.999V6h6v4h21.999v7.348a8.997 8.997 0 1 0-12.651 12.651H2zm21-.116A6.898 6.898 0 0 1 16.115 23 6.897 6.897 0 0 1 23 16.116 6.897 6.897 0 0 1 29.883 23 6.898 6.898 0 0 1 23 29.883zm6.999.116H28.65c.496-.4.948-.853 1.349-1.349v1.349z"/><path d="M26.144 22c.008-.131.014-.267.014-.409-.006-.678-.088-1.492-.556-2.259-.457-.779-1.438-1.36-2.602-1.333-1.165-.027-2.148.554-2.605 1.333-.47.767-.552 1.581-.556 2.259 0 .143.006.278.014.409H19v5h8v-5h-.856zm-4.307-.409c-.004-.478.093-.958.254-1.198.173-.227.27-.366.909-.394.637.027.73.165.904.394.162.24.259.723.253 1.198 0 .145-.008.28-.019.409h-2.282a5.346 5.346 0 0 1-.019-.409z"/></g></svg>