<svg height="32" viewBox="0 0 32 32" fill="#E76E2D" width="32" xmlns="http://www.w3.org/2000/svg"><path d="M30 10h-9.031L18 1.672C17.641.422 16.813 0 16 0s-1.641.422-2 1.672L11.031 10H2c-1.141 0-2 .938-2 2 0 .859.438 1.359 1.19 2l6.623 5-3.208 9C4.234 28.922 4 29.484 4 30c0 .984.766 2 2 2 .719 0 1.016-.25 2-.895l8-6.021 8 6.021c.984.645 1.281.895 2 .895 1.234 0 2-1.016 2-2 0-.516-.234-1.078-.605-2l-3.208-9 6.623-5c.753-.641 1.19-1.141 1.19-2 0-1.062-.859-2-2-2zm-10.567 7.577l2.477 6.948L16 20.077l-5.909 4.448 2.477-6.948L7.829 14h6.022L16 7.974 18.148 14h6.022l-4.737 3.577z"/></svg>