<svg height="1024" width="896" xmlns="http://www.w3.org/2000/svg" fill="#fff"><path d="M448 384c35.375 0 64-28.594 64-64 0-35.312-28.625-64-64-64-35.406 0-64 28.688-64 64 0 35.406 28.594 64 64 64zm0-320C200.562 64 0 264.562 0 512s200.562 448 448 448 448-200.562 448-448S695.438 64 448 64zm0 768c-176.781 0-320-143.25-320-320 0-176.781 143.219-320 320-320 176.75 0 320 143.219 320 320 0 176.75-143.25 320-320 320zm64-320c0-66-64-64-64-64h-64c-64 0-64 64-64 64h64v192c0 64 64 64 64 64h64c64 0 64-64 64-64h-64V512z"/></svg>